# xmcd CD database file
#
# Track frame offsets:
#	150
#	14080
#	27610
#	42670
#	64422
#	82392
#	97875
#	109992
#	125337
#	139047
#	152265
#	168610
#	187247
#	202400
#
# Disc length: 2937 seconds
#
# Revision: 0
# Processed by: cddbd v1.5.2PL0 Copyright (c) Steve Scherf et al.
# Submitted via: CDex 1.70beta2
#
DISCID=da0b770e
DTITLE=ウッディー･スプリング･トリオ - プレイバック
DYEAR=1900
DGENRE=Jazz
TTITLE0=プレイバックPart2
TTITLE1=絶対絶命
TTITLE2=いい日旅立ち
TTITLE3=美・サイレント
TTITLE4=ロックンロール・ウィドウ
TTITLE5=しなやかに歌って
TTITLE6=ひと夏の経験
TTITLE7=横須賀ストーリー
TTITLE8=夢先案内人
TTITLE9=イミテイション・ゴールド
TTITLE10=秋桜
TTITLE11=曼珠沙華
TTITLE12=禁じられた遊び
TTITLE13=さよならの向う側
EXTD=
EXTT0=
EXTT1=
EXTT2=
EXTT3=
EXTT4=
EXTT5=
EXTT6=
EXTT7=
EXTT8=
EXTT9=
EXTT10=
EXTT11=
EXTT12=
EXTT13=
PLAYORDER=
